# Blender v2.93.8 OBJ File: ''
# www.blender.org
mtllib logo.mtl
o logo_Plane
v -1.000000 0.000000 1.000000
v 1.000000 0.000000 1.000000
v -1.000000 0.000000 -1.000000
v 1.000000 0.000000 -1.000000
v -0.791710 0.300184 -0.791710
v -0.791710 0.300184 0.791710
v 0.791710 0.300184 0.791710
v 0.791710 0.300184 -0.791710
v -0.185095 0.300184 0.791710
v 0.183197 0.300184 0.791710
v -0.439482 0.300184 0.240149
v 0.424329 0.300184 0.240149
v 0.006737 0.300184 0.240149
v -0.334522 0.300184 -0.791710
v 0.336836 0.300184 -0.791710
v -0.791710 0.630104 -0.791710
v -0.791710 0.630104 0.791710
v 0.183197 0.630104 0.791710
v 0.791710 0.630104 0.791710
v 0.791710 0.630104 -0.791710
v -0.334522 0.630104 -0.791710
v -1.000000 0.630104 -1.000000
v -1.000000 0.630104 1.000000
v 1.000000 0.630104 1.000000
v 1.000000 0.630104 -1.000000
v -0.185095 0.630104 0.791710
v -0.439482 0.630104 0.240149
v 0.006737 0.630104 0.240149
v 0.424329 0.630104 0.240149
v 0.336836 0.630104 -0.791710
vt 0.104367 0.118102
vt 0.407674 0.118102
vt 0.280481 0.393882
vt 0.104367 0.909812
vt 0.507089 0.240810
vt 0.507089 0.240810
vt 0.507089 0.240810
vt 0.507089 0.240810
vt 0.507089 0.240810
vt 0.507089 0.240810
vt 0.507089 0.240810
vt 0.507089 0.240810
vt 0.507089 0.240810
vt 0.507089 0.240810
vt 0.507089 0.240810
vt 0.507089 0.240810
vt 0.507089 0.240810
vt 0.507089 0.240810
vt 0.507089 0.240810
vt 0.507089 0.240810
vt 0.507089 0.240810
vt 0.507089 0.240810
vt 0.896077 0.909812
vt 0.712386 0.393882
vt 0.591820 0.118102
vt 0.896077 0.118102
vt 0.332961 0.909812
vt 0.503590 0.393882
vt 0.668640 0.909812
vt 0.507089 0.240810
vt 0.507089 0.240810
vt 0.507089 0.240810
vt 0.507089 0.240810
vt 0.507089 0.240810
vt 0.507089 0.240810
vt 0.507089 0.240810
vt 0.507089 0.240810
vt 0.507089 0.240810
vt 0.507089 0.240810
vt 0.507089 0.240810
vt 0.507089 0.240810
vn 0.0000 1.0000 0.0000
vn 0.9494 0.0000 -0.3140
vn 1.0000 0.0000 0.0000
vn 0.0000 0.0000 1.0000
vn 0.0000 0.0000 -1.0000
vn -1.0000 0.0000 0.0000
vn 0.9421 0.0000 0.3354
vn -0.9081 0.0000 0.4188
vn -0.9524 0.0000 -0.3047
vn 0.9163 0.0000 0.4006
vn -0.9464 0.0000 0.3230
usemtl Material
s off
f 6/1/1 9/2/1 11/3/1 5/4/1
f 13/5/2 14/6/2 21/7/2 28/8/2
f 2/9/3 4/10/3 25/11/3 24/12/3
f 14/6/4 15/13/4 30/14/4 21/7/4
f 1/15/4 2/9/4 24/12/4 23/16/4
f 9/17/5 6/18/5 17/19/5 26/20/5
f 3/21/6 1/15/6 23/16/6 22/22/6
f 8/23/1 12/24/1 10/25/1 7/26/1
f 14/27/1 13/28/1 15/29/1
f 12/30/7 8/31/7 20/32/7 29/33/7
f 17/19/1 16/34/1 22/22/1 23/16/1
f 19/35/1 18/36/1 26/20/1 17/19/1 23/16/1 24/12/1
f 20/32/1 19/35/1 24/12/1 25/11/1
f 16/34/1 21/7/1 30/14/1 20/32/1 25/11/1 22/22/1
f 18/36/1 29/33/1 28/8/1 27/37/1 26/20/1
f 16/34/1 27/37/1 28/8/1 21/7/1
f 30/14/1 28/8/1 29/33/1 20/32/1
f 11/38/8 9/17/8 26/20/8 27/37/8
f 4/10/5 3/21/5 22/22/5 25/11/5
f 6/18/3 5/39/3 16/34/3 17/19/3
f 15/13/9 13/5/9 28/8/9 30/14/9
f 7/40/5 10/41/5 18/36/5 19/35/5
f 10/41/10 12/30/10 29/33/10 18/36/10
f 8/31/6 7/40/6 19/35/6 20/32/6
f 5/39/11 11/38/11 27/37/11 16/34/11
